 <svg width="41" height="40" viewBox="0 0 41 40" fill="none" xmlns="http://www.w3.org/2000/svg">
<g clip-path="url(#clip0_1979_512)">
<path d="M20.375 40C31.4207 40 40.375 31.0457 40.375 20C40.375 8.95431 31.4207 0 20.375 0C9.32931 0 0.375 8.95431 0.375 20C0.375 31.0457 9.32931 40 20.375 40Z" fill="#141726"/>
<path d="M27.1753 28.445C23.8353 23.02 18.8553 19.945 12.7053 18.665C10.5303 18.215 8.34525 18.22 6.23525 19.05C4.79025 19.62 4.57025 20.22 5.25025 21.735C9.87025 20.64 14.1703 21.66 18.1953 23.985C22.2503 26.33 25.2753 29.595 26.6503 34.235C28.5803 33.645 28.8303 33.32 28.3653 31.525C28.0903 30.47 27.7453 29.37 27.1753 28.445Z" fill="url(#paint0_linear_1979_512)"/>
<path d="M30.8294 24.0299C26.5394 17.7799 20.4644 14.2849 13.0394 13.1149C11.0744 12.8049 9.06938 12.8899 7.22938 13.8299C6.34938 14.2799 5.56937 14.8549 5.35938 16.0749C11.1494 14.4799 16.3444 15.8899 21.2344 18.7249C26.1494 21.5749 29.9894 25.3999 31.4844 31.2799C32.5244 30.3599 32.7094 29.2299 32.4394 28.1799C32.0694 26.7399 31.6494 25.2249 30.8294 24.0299Z" fill="url(#paint1_linear_1979_512)"/>
<path d="M5.625 24.4299C5.99 25.2399 6.23 26.1549 6.775 26.8099C7.05 27.1449 7.885 27.0149 8.465 27.0949C8.555 27.1049 8.645 27.1199 8.735 27.1299C13.88 27.8949 17.94 30.3849 20.84 34.7299C21.01 34.9849 21.285 35.3649 21.51 35.3649C22.38 35.3599 23.255 35.2249 24.135 35.1399C22.825 27.8749 12.015 21.9149 5.625 24.4299Z" fill="url(#paint2_linear_1979_512)"/>
<path d="M33.2059 18.335C30.3709 14.37 26.4609 11.73 22.0209 9.85005C18.9459 8.54505 15.7609 7.76005 12.3809 8.16505C11.2109 8.30505 10.1159 8.64005 9.21094 9.40005C20.7559 9.69005 29.4409 14.69 35.4109 24.565C35.4209 23.91 35.5209 23.18 35.2809 22.59C34.6809 21.125 34.1109 19.6 33.2059 18.335Z" fill="url(#paint3_linear_1979_512)"/>
<path d="M35.8643 16.2649C33.5143 7.31994 23.9643 3.01494 16.9043 5.19494C24.5093 6.69494 30.7493 10.3199 35.8643 16.2649Z" fill="url(#paint4_linear_1979_512)"/>
<path d="M8.14453 29.1952C10.8745 32.6602 14.3445 34.6802 18.7945 35.3352C17.0945 32.1602 11.1045 28.7252 8.14453 29.1952Z" fill="url(#paint5_linear_1979_512)"/>
</g>
<defs>
<linearGradient id="paint0_linear_1979_512" x1="29.1215" y1="6.70638" x2="12.8015" y2="32.8844" gradientUnits="userSpaceOnUse">
<stop offset="0.16" stop-color="#C6F462"/>
<stop offset="0.89" stop-color="#33D9FF"/>
</linearGradient>
<linearGradient id="paint1_linear_1979_512" x1="29.0039" y1="6.63342" x2="12.6844" y2="32.8114" gradientUnits="userSpaceOnUse">
<stop offset="0.16" stop-color="#C6F462"/>
<stop offset="0.89" stop-color="#33D9FF"/>
</linearGradient>
<linearGradient id="paint2_linear_1979_512" x1="29.2257" y1="6.77159" x2="12.9062" y2="32.9496" gradientUnits="userSpaceOnUse">
<stop offset="0.16" stop-color="#C6F462"/>
<stop offset="0.89" stop-color="#33D9FF"/>
</linearGradient>
<linearGradient id="paint3_linear_1979_512" x1="28.8273" y1="6.52246" x2="12.5073" y2="32.7005" gradientUnits="userSpaceOnUse">
<stop offset="0.16" stop-color="#C6F462"/>
<stop offset="0.89" stop-color="#33D9FF"/>
</linearGradient>
<linearGradient id="paint4_linear_1979_512" x1="28.9592" y1="6.60536" x2="12.6392" y2="32.7834" gradientUnits="userSpaceOnUse">
<stop offset="0.16" stop-color="#C6F462"/>
<stop offset="0.89" stop-color="#33D9FF"/>
</linearGradient>
<linearGradient id="paint5_linear_1979_512" x1="29.3264" y1="6.83468" x2="13.0069" y2="33.0127" gradientUnits="userSpaceOnUse">
<stop offset="0.16" stop-color="#C6F462"/>
<stop offset="0.89" stop-color="#33D9FF"/>
</linearGradient>
<clipPath id="clip0_1979_512">
<rect width="40" height="40" fill="white" transform="translate(0.375)"/>
</clipPath>
</defs>
</svg>
