<svg width="818" height="168" viewBox="0 0 818 168" fill="none" xmlns="http://www.w3.org/2000/svg">
<path d="M210.634 95.101L187.731 95.6642C187.731 95.1636 187.794 94.1207 187.919 92.5354C188.044 90.9501 188.19 89.1771 188.357 87.2163C188.565 85.2556 188.753 83.4826 188.92 81.8973C189.087 80.2703 189.233 79.1856 189.358 78.6433L210.321 79.8323C210.363 80.7501 210.405 82.1268 210.446 83.9623C210.488 85.7979 210.53 87.7378 210.572 89.782C210.613 91.8262 210.634 93.5992 210.634 95.101ZM190.234 15.0026C190.276 14.0431 190.338 12.6664 190.422 10.8726C190.505 9.03696 190.589 7.2431 190.672 5.49095C190.797 3.73879 190.902 2.50811 190.985 1.79891L208.945 0.985409C208.986 1.86149 209.007 3.1756 209.007 4.92775C209.049 6.63818 209.07 8.4112 209.07 10.2468C209.07 12.0824 209.07 13.6259 209.07 14.8775L190.234 15.0026ZM201.06 86.8409C195.47 86.8409 190.568 86.236 186.354 85.0262C182.141 83.7746 178.741 82.4188 176.154 80.9587C173.568 79.4985 171.878 78.393 171.085 77.6421C171.294 76.766 171.816 75.3893 172.65 73.512C173.526 71.593 174.548 69.5071 175.716 67.2543C176.926 65.0016 178.136 62.9157 179.346 60.9966C180.555 59.0359 181.619 57.5966 182.537 56.6788C184.665 58.2224 186.855 59.7451 189.108 61.2469C191.36 62.7488 193.551 63.9795 195.678 64.939C197.848 65.8985 199.767 66.3782 201.435 66.3782C202.395 66.3782 203.229 66.2948 203.938 66.1279C204.689 65.9611 205.252 65.669 205.628 65.2519C206.045 64.8347 206.254 64.2506 206.254 63.4997C206.254 62.6653 205.586 61.685 204.251 60.5586C202.916 59.4322 201.248 58.3058 199.245 57.1794C197.284 56.0113 195.344 54.9893 193.425 54.1132C190.38 52.7365 187.481 51.0886 184.727 49.1696C182.016 47.2089 179.784 44.7892 178.032 41.9107C176.321 39.0322 175.466 35.507 175.466 31.3352C175.466 27.0382 176.759 23.4296 179.346 20.5094C181.932 17.5474 185.29 15.3155 189.421 13.8137C193.592 12.2701 197.994 11.4983 202.624 11.4983C206.587 11.4983 210.884 12.0824 215.515 13.2505C220.187 14.4186 224.13 16.275 227.342 18.8198C227.092 19.6959 226.466 21.1143 225.465 23.075C224.464 25.0358 223.233 27.1634 221.773 29.4579C220.313 31.7524 218.748 33.88 217.08 35.8407C215.578 34.2554 213.617 32.7536 211.197 31.3352C208.819 29.9168 206.4 29.2076 203.938 29.2076C203.062 29.2076 202.165 29.291 201.248 29.4579C200.33 29.6248 199.558 29.9376 198.932 30.3965C198.306 30.8137 197.994 31.4186 197.994 32.2113C197.994 33.0456 198.369 33.8174 199.12 34.5266C199.871 35.2358 201.018 35.9867 202.562 36.7794C204.147 37.5303 206.108 38.4272 208.444 39.4702C210.321 40.3045 212.449 41.3892 214.827 42.7242C217.205 44.0174 219.478 45.6236 221.648 47.5426C223.859 49.4199 225.673 51.631 227.092 54.1758C228.552 56.7205 229.282 59.6408 229.282 62.9365C229.282 68.3598 227.968 72.8445 225.34 76.3905C222.711 79.9366 219.249 82.5648 214.952 84.2752C210.697 85.9857 206.066 86.8409 201.06 86.8409ZM238.45 89.5317C238.45 86.8617 238.45 83.3574 238.45 79.0188C238.492 74.6384 238.534 69.7365 238.575 64.3132C238.659 58.8899 238.763 53.1954 238.888 47.2297C239.013 41.2223 239.159 35.2358 239.326 29.2702C239.535 23.2628 239.785 17.5474 240.077 12.1241C242.58 11.8738 245.521 11.6861 248.9 11.5609C252.28 11.394 255.596 11.2689 258.85 11.1854C262.146 11.102 264.92 11.0603 267.173 11.0603C269.426 11.0186 270.656 10.9977 270.865 10.9977C270.948 11.1646 271.199 12.0407 271.616 13.6259C272.033 15.2112 272.555 17.2554 273.18 19.7585C273.848 22.2615 274.557 25.0149 275.308 28.0186C276.059 31.0223 276.81 34.0677 277.561 37.1548C278.353 40.242 279.083 43.1831 279.751 45.9782C280.46 48.7316 281.044 51.1095 281.503 53.1119C282.004 55.1144 282.337 56.512 282.504 57.3046L279.688 57.6801C280.064 56.6788 280.585 55.0518 281.253 52.7991C281.92 50.5046 282.671 47.8555 283.506 44.8518C284.382 41.8064 285.258 38.615 286.134 35.2775C287.052 31.9401 287.928 28.707 288.762 25.5781C289.596 22.4076 290.326 19.5916 290.952 17.1302C291.578 14.6272 292.016 12.729 292.266 11.4357C294.436 11.4357 297.189 11.4775 300.526 11.5609C303.864 11.6443 307.243 11.7903 310.664 11.9989C314.126 12.2075 317.026 12.5204 319.362 12.9376C320.196 16.6088 320.78 21.2395 321.114 26.8297C321.49 32.3781 321.677 38.3021 321.677 44.6015C321.677 49.9831 321.573 55.4481 321.365 60.9966C321.198 66.5451 320.968 71.7807 320.676 76.7034C320.384 81.6261 320.092 85.8605 319.8 89.4065C317.255 89.4065 314.502 89.3648 311.54 89.2814C308.578 89.1562 305.783 89.0102 303.155 88.8433C300.526 88.6765 298.461 88.5513 296.96 88.4679C297.085 86.7157 297.231 84.0666 297.398 80.5206C297.606 76.9746 297.794 73.2617 297.961 69.3819C298.086 67.004 298.19 64.6887 298.274 62.4359C298.399 60.1831 298.503 58.1598 298.587 56.3659C298.712 54.5304 298.816 53.0911 298.899 52.0481C298.524 53.4248 298.002 55.1561 297.335 57.242C296.668 59.2862 295.917 61.539 295.082 64.0003C294.29 66.42 293.455 68.8813 292.579 71.3844C291.703 73.8875 290.848 76.2862 290.013 78.5807C289.221 80.8335 288.512 82.8151 287.886 84.5255C287.26 86.236 286.76 87.5084 286.384 88.3427C285.675 88.3844 284.611 88.4262 283.193 88.4679C281.774 88.4679 280.71 88.4679 280.001 88.4679C278.708 88.4679 277.373 88.4053 275.996 88.2802C274.62 88.155 273.055 88.009 271.303 87.8421C271.178 87.1329 270.948 86.0274 270.615 84.5255C270.323 83.0237 269.947 81.2298 269.488 79.1439C269.071 77.0163 268.612 74.7427 268.112 72.323C267.611 69.8617 267.09 67.3795 266.547 64.8764C266.047 62.3316 265.525 59.8702 264.983 57.4923C264.482 55.0727 264.002 52.8616 263.543 50.8592C263.085 48.815 262.688 47.1046 262.355 45.7279C262.396 49.5659 262.438 53.4874 262.48 57.4923C262.521 61.4972 262.542 65.3353 262.542 69.0065C262.584 72.6776 262.605 75.9942 262.605 78.9562C262.647 81.8765 262.667 84.2544 262.667 86.09C262.709 87.9255 262.73 88.9685 262.73 89.2188C260.894 89.2605 258.579 89.3231 255.784 89.4065C253.031 89.4483 250.131 89.49 247.086 89.5317C244.04 89.5317 241.162 89.5317 238.45 89.5317ZM390.534 76.5157C389.116 78.8102 387.072 81.0421 384.402 83.2114C381.732 85.3808 378.436 87.1746 374.514 88.593C370.635 90.0114 366.15 90.7206 361.06 90.7206C354.594 90.7206 348.962 89.1562 344.165 86.0274C339.409 82.8568 335.717 78.6433 333.089 73.3869C330.46 68.0887 329.146 62.2899 329.146 55.9905C329.146 49.5242 330.523 43.6837 333.276 38.469C336.071 33.2542 339.93 29.1033 344.853 26.0162C349.776 22.929 355.491 21.3855 361.999 21.3855C365.921 21.3855 369.529 21.9695 372.825 23.1376C376.162 24.264 379.145 25.9536 381.773 28.2063C384.402 30.4591 386.654 33.2125 388.532 36.4665L371.636 45.4776C371.511 45.2273 371.281 44.8518 370.948 44.3512C370.614 43.8506 370.113 43.3291 369.446 42.7868C368.82 42.2027 368.006 41.723 367.005 41.3475C366.004 40.972 364.773 40.7843 363.313 40.7843C360.852 40.7843 358.787 41.2432 357.118 42.161C355.491 43.0788 354.26 44.4138 353.426 46.1659C352.592 47.9181 352.174 50.0457 352.174 52.5488C352.174 54.2175 352.425 56.0531 352.925 58.0555C353.426 60.058 354.365 61.7893 355.741 63.2494C357.118 64.6678 359.1 65.377 361.686 65.377C363.271 65.377 364.773 65.1058 366.192 64.5635C367.61 63.9795 368.862 63.2911 369.946 62.4985C371.073 61.7058 371.991 60.9549 372.7 60.2457C373.409 59.4948 373.868 58.9525 374.076 58.6187L390.534 76.5157ZM429.054 91.0961C426.426 91.0961 423.589 90.8667 420.543 90.4078C417.54 89.9489 414.494 89.1354 411.407 87.9673C408.32 86.7574 405.4 85.1096 402.646 83.0237C399.893 80.8961 397.494 78.2053 395.45 74.9513C395.7 74.4507 396.472 73.5746 397.765 72.323C399.1 71.0715 400.644 69.6948 402.396 68.193C404.19 66.6494 405.942 65.231 407.652 63.9377C409.405 62.6445 410.823 61.7267 411.908 61.1844C413.576 62.9365 415.183 64.5009 416.726 65.8776C418.27 67.2126 419.792 68.339 421.294 69.2568C422.796 70.1746 424.319 70.8629 425.862 71.3218C427.448 71.7807 429.075 72.0102 430.743 72.0102C432.329 72.0102 433.559 71.7181 434.435 71.1341C435.353 70.55 436 69.7991 436.375 68.8813C436.751 67.9218 436.938 66.9206 436.938 65.8776C436.938 65.2101 436.792 64.4801 436.5 63.6874C436.208 62.8948 435.666 62.0813 434.873 61.2469C434.122 60.3709 433.038 59.4739 431.619 58.5561C430.243 57.5966 428.449 56.658 426.238 55.7402C421.19 53.5708 416.538 51.3598 412.283 49.107C408.028 46.8543 404.607 44.1635 402.021 41.0346C399.434 37.9058 398.141 33.9634 398.141 29.2076C398.141 24.0763 399.58 19.7585 402.459 16.2542C405.379 12.7499 409.175 10.1008 413.848 8.3069C418.562 6.47131 423.61 5.55352 428.991 5.55352C432.537 5.55352 436.083 5.88726 439.629 6.55475C443.217 7.18052 446.7 8.34862 450.08 10.0591C453.459 11.7278 456.588 14.1474 459.466 17.318C458.715 18.4026 457.485 19.8836 455.774 21.7609C454.105 23.5965 452.332 25.453 450.455 27.3303C448.578 29.2076 446.972 30.7303 445.637 31.8984C443.634 30.0211 441.611 28.4984 439.567 27.3303C437.564 26.1622 435.666 25.307 433.872 24.7646C432.078 24.1806 430.535 23.8885 429.241 23.8885C427.573 23.8885 426.029 24.2014 424.611 24.8272C423.234 25.4112 422.546 26.4751 422.546 28.0186C422.546 28.561 422.65 29.1033 422.859 29.6456C423.109 30.188 423.484 30.7303 423.985 31.2726C424.527 31.7732 425.237 32.2738 426.113 32.7745C426.989 33.2751 428.094 33.7548 429.429 34.2137C433.81 35.799 437.94 37.4052 441.819 39.0322C445.699 40.6591 449.12 42.5365 452.082 44.6641C455.044 46.75 457.359 49.2948 459.028 52.2984C460.697 55.3021 461.531 58.9525 461.531 63.2494C461.531 67.5881 460.697 71.4887 459.028 74.9513C457.359 78.3721 455.044 81.2924 452.082 83.712C449.12 86.09 445.678 87.9255 441.757 89.2188C437.835 90.4703 433.601 91.0961 429.054 91.0961ZM473.766 89.6568C473.557 87.863 473.328 85.1722 473.077 81.5844C472.827 77.9967 472.577 73.8458 472.326 69.1316C472.118 64.3758 471.93 59.3696 471.763 54.1132C471.596 48.8567 471.45 43.6628 471.325 38.5315C471.242 33.3585 471.2 28.561 471.2 24.1389C471.2 21.1352 471.221 18.4026 471.263 15.9413C471.346 13.4799 471.45 11.4149 471.575 9.74617C471.993 9.70445 473.182 9.64187 475.142 9.55844C477.103 9.43328 479.398 9.32899 482.026 9.24555C484.696 9.1204 487.282 9.01611 489.785 8.93267C492.33 8.84924 494.374 8.80752 495.918 8.80752C495.918 10.9351 495.918 13.3756 495.918 16.129C495.96 18.8407 495.98 21.3438 495.98 23.6382C495.98 26.3499 496.022 29.3327 496.106 32.5867C496.231 35.799 496.335 38.1978 496.418 39.7831C497.336 39.6996 498.191 39.6162 498.984 39.5328C499.818 39.4493 500.59 39.3868 501.299 39.345C502.05 39.3033 502.76 39.2825 503.427 39.2825C504.136 39.2407 504.804 39.2199 505.429 39.2199C506.097 39.1782 506.764 39.1573 507.432 39.1573C507.474 38.1561 507.515 36.4039 507.557 33.9008C507.641 31.3978 507.703 28.561 507.745 25.3904C507.828 22.2198 507.891 19.1118 507.933 16.0664C508.016 12.9793 508.099 10.4137 508.183 8.36948C509.434 8.28604 510.936 8.24432 512.688 8.24432C514.441 8.20261 516.151 8.18175 517.82 8.18175C521.032 8.18175 524.057 8.22347 526.893 8.3069C529.73 8.39034 531.879 8.51549 533.339 8.68237C533.214 9.475 533.068 10.81 532.901 12.6873C532.776 14.5646 532.609 16.8591 532.4 19.5707C532.233 22.2407 532.066 25.2235 531.9 28.5192C531.733 31.7732 531.566 35.215 531.399 38.8444C531.232 42.4739 531.065 46.1659 530.898 49.9205C530.69 55.2187 530.502 60.4126 530.335 65.5022C530.21 70.5918 530.085 75.2016 529.96 79.3317C529.876 83.4617 529.814 86.7574 529.772 89.2188C528.687 89.3022 526.935 89.4065 524.515 89.5317C522.096 89.6151 519.363 89.6986 516.318 89.782C513.314 89.8237 510.31 89.8446 507.307 89.8446C507.307 86.8409 507.307 84.0875 507.307 81.5844C507.307 79.0396 507.307 76.6409 507.307 74.3881C507.307 72.1353 507.307 69.9034 507.307 67.6924C507.307 65.4396 507.307 63.0617 507.307 60.5586C506.472 60.6003 505.701 60.6212 504.991 60.6212C504.282 60.6212 503.615 60.642 502.989 60.6837C502.405 60.6837 501.8 60.6837 501.174 60.6837C500.59 60.6837 499.985 60.6837 499.36 60.6837C498.734 60.6837 498.066 60.6837 497.357 60.6837C497.441 62.3942 497.524 64.6052 497.607 67.3169C497.691 69.9868 497.774 72.7819 497.858 75.7022C497.941 78.5807 498.025 81.1881 498.108 83.5243C498.191 85.8605 498.233 87.5501 498.233 88.593C496.982 88.7599 495.25 88.9059 493.039 89.0311C490.828 89.1562 488.471 89.2814 485.968 89.4065C483.465 89.49 481.108 89.5525 478.897 89.5943C476.686 89.636 474.975 89.6568 473.766 89.6568ZM567.688 91.4716C565.602 91.4716 563.183 91.4507 560.429 91.409C557.676 91.3673 554.902 91.263 552.107 91.0961C549.312 90.971 546.746 90.7624 544.41 90.4703C544.326 87.9673 544.243 84.7133 544.159 80.7083C544.076 76.6617 543.992 72.2813 543.909 67.5672C543.867 62.8114 543.846 58.1807 543.846 53.6751C543.846 46.5414 543.909 39.1156 544.034 31.3978C544.159 23.6382 544.326 15.7327 544.535 7.68113C545.411 7.63941 546.808 7.5977 548.727 7.55598C550.688 7.51426 552.878 7.47254 555.298 7.43083C557.718 7.34739 560.075 7.28481 562.369 7.2431C564.664 7.20138 566.583 7.18052 568.126 7.18052C568.377 11.2272 568.585 15.9413 568.752 21.3229C568.961 26.6628 569.107 32.2947 569.19 38.2187C569.315 44.1009 569.378 49.9205 569.378 55.6776C569.378 58.6396 569.357 61.539 569.315 64.3758C569.274 67.2126 569.211 69.9451 569.128 72.5734C569.086 75.1599 568.982 77.6212 568.815 79.9574C568.689 82.2519 568.523 84.3795 568.314 86.3403C568.147 88.301 567.939 90.0114 567.688 91.4716ZM581.396 88.2802C581.396 86.6532 581.417 84.0666 581.459 80.5206C581.542 76.9329 581.646 72.7819 581.772 68.0678C581.897 63.312 582.022 58.3267 582.147 53.1119C582.314 47.8555 582.46 42.7242 582.585 37.718C582.71 32.6702 582.835 28.0812 582.961 23.9511C583.086 19.7793 583.169 16.4002 583.211 13.8137C583.294 11.2272 583.336 9.80875 583.336 9.55844C586.006 9.39157 589.114 9.20384 592.66 8.99525C596.206 8.78666 599.877 8.61979 603.674 8.49463C607.47 8.32776 611.037 8.24432 614.374 8.24432C619.505 8.24432 624.032 8.87009 627.953 10.1216C631.875 11.3732 634.941 13.4173 637.152 16.2542C639.405 19.0493 640.531 22.7622 640.531 27.3929C640.531 30.8554 639.697 33.7548 638.028 36.091C636.401 38.3855 634.44 40.1794 632.146 41.4726C629.893 42.7242 627.807 43.5168 625.888 43.8506C626.097 43.8506 626.326 43.8506 626.577 43.8506C626.827 43.8506 627.14 43.8714 627.515 43.9131C631.312 44.2052 634.586 45.1647 637.34 46.7917C640.093 48.377 642.2 50.4837 643.66 53.1119C645.162 55.7402 645.913 58.7647 645.913 62.1856C645.913 67.9427 644.849 72.6359 642.721 76.2654C640.594 79.8531 637.528 82.6482 633.523 84.6507C629.518 86.6114 624.678 87.9673 619.005 88.7182C613.373 89.4691 607.032 89.8446 599.981 89.8446C596.394 89.8446 592.952 89.7194 589.656 89.4691C586.361 89.2188 583.607 88.8225 581.396 88.2802ZM606.99 66.6286C607.407 66.6703 607.887 66.6911 608.429 66.6911C609.013 66.6911 609.639 66.6911 610.307 66.6911C611.642 66.6911 613.018 66.5868 614.437 66.3782C615.897 66.1279 617.253 65.7733 618.504 65.3144C619.797 64.8138 620.84 64.2089 621.633 63.4997C622.426 62.7488 622.822 61.8519 622.822 60.8089C622.822 60.1831 622.718 59.5574 622.509 58.9316C622.342 58.3058 621.946 57.7426 621.32 57.242C620.736 56.6997 619.797 56.2825 618.504 55.9905C617.253 55.6985 615.542 55.5524 613.373 55.5524C612.664 55.5524 611.955 55.5733 611.245 55.615C610.536 55.615 609.785 55.6567 608.993 55.7402C608.242 55.7819 607.386 55.8653 606.427 55.9905L606.99 66.6286ZM606.114 36.3413C606.74 36.3413 607.324 36.3413 607.866 36.3413C608.45 36.3413 609.013 36.3413 609.556 36.3413C612.017 36.3413 614.332 35.9242 616.502 35.0898C618.713 34.2554 619.818 32.837 619.818 30.8346C619.818 29.4162 619.213 28.2481 618.004 27.3303C616.794 26.4125 615.334 25.9536 613.623 25.9536C612.58 25.9536 611.308 26.037 609.806 26.2039C608.346 26.329 606.969 26.4751 605.676 26.6419L606.114 36.3413Z" fill="white"/>
<path d="M297.1 20.1874C304.331 20.1874 310.197 50.5252 310.197 88H320.75C320.75 47.6564 310.103 15 297.069 15C289.624 15 283.044 24.783 278.701 40.1608C274.357 24.7865 267.777 15 260.392 15C247.358 15 236.75 47.6286 236.75 87.9721H247.299C247.299 50.5008 253.102 20.1874 260.333 20.1874C267.564 20.1874 273.426 48.2135 273.426 82.7847H283.916C283.916 48.2135 289.81 20.1874 297.041 20.1874H297.1Z" fill="#FFBC0D"/>
</svg>
