<svg width="39" height="38" viewBox="0 0 39 38" fill="none" xmlns="http://www.w3.org/2000/svg">
<g filter="url(#filter0_d_1979_544)">
<mask id="path-1-inside-1_1979_544" fill="white">
<path d="M5 6C5 2.68629 7.68629 0 11 0H29C32.3137 0 35 2.68629 35 6V24C35 27.3137 32.3137 30 29 30H11C7.68629 30 5 27.3137 5 24V6Z"/>
</mask>
<path d="M5 6C5 2.68629 7.68629 0 11 0H29C32.3137 0 35 2.68629 35 6V24C35 27.3137 32.3137 30 29 30H11C7.68629 30 5 27.3137 5 24V6Z" fill="white"/>
<path d="M3 6C3 1.58172 6.58172 -2 11 -2H30C34.4183 -2 38 1.58172 38 6H32C32 3.79086 30.6569 2 29 2H11C8.79086 2 7 3.79086 7 6H3ZM38 24C38 28.9706 33.9706 33 29 33H11C6.58172 33 3 29.4183 3 25L7 24C7 25.6569 8.79086 27 11 27H29C30.6569 27 32 25.6569 32 24H38ZM11 33C6.58172 33 3 29.4183 3 25V6C3 1.58172 6.58172 -2 11 -2V2C8.79086 2 7 3.79086 7 6V24C7 25.6569 8.79086 27 11 27V33ZM30 -2C34.4183 -2 38 1.58172 38 6V24C38 28.9706 33.9706 33 29 33V27C30.6569 27 32 25.6569 32 24V6C32 3.79086 30.6569 2 29 2L30 -2Z" fill="#FFC72C" mask="url(#path-1-inside-1_1979_544)"/>
<path d="M11.4996 14.3337C11.4996 14.3337 18.2496 11.5837 20.5829 10.5837C21.4996 10.1671 24.4996 8.91708 24.4996 8.91708C24.4996 8.91708 25.9162 8.33374 25.7496 9.66708C25.7496 10.2504 25.4162 12.1671 25.0829 14.1671C24.5829 17.0837 24.0829 20.3337 24.0829 20.3337C24.0829 20.3337 23.9996 21.2504 23.3329 21.4171C22.6662 21.5837 21.5829 20.8337 21.4162 20.7504C21.2496 20.6671 18.4996 18.9171 17.4996 18.0004C17.2496 17.7504 16.9162 17.3337 17.4996 16.7504C18.9162 15.5004 20.5829 13.8337 21.5829 12.8337C22.0829 12.3337 22.4996 11.2504 20.5829 12.5837C17.8329 14.5004 15.0829 16.3337 15.0829 16.3337C15.0829 16.3337 14.4996 16.7504 13.2496 16.3337C12.0829 16.0004 10.7496 15.5004 10.7496 15.5004C10.7496 15.5004 9.83289 15.0004 11.4996 14.3337Z" fill="#DA291C"/>
</g>
<defs>
<filter id="filter0_d_1979_544" x="-4" y="0" width="43" height="38" filterUnits="userSpaceOnUse" color-interpolation-filters="sRGB">
<feFlood flood-opacity="0" result="BackgroundImageFix"/>
<feColorMatrix in="SourceAlpha" type="matrix" values="0 0 0 0 0 0 0 0 0 0 0 0 0 0 0 0 0 0 127 0" result="hardAlpha"/>
<feOffset dy="4"/>
<feGaussianBlur stdDeviation="2"/>
<feComposite in2="hardAlpha" operator="out"/>
<feColorMatrix type="matrix" values="0 0 0 0 0 0 0 0 0 0 0 0 0 0 0 0 0 0 0.25 0"/>
<feBlend mode="normal" in2="BackgroundImageFix" result="effect1_dropShadow_1979_544"/>
<feBlend mode="normal" in="SourceGraphic" in2="effect1_dropShadow_1979_544" result="shape"/>
</filter>
</defs>
</svg>
         