<svg width="39" height="38" viewBox="0 0 39 38" fill="none" xmlns="http://www.w3.org/2000/svg">
<g filter="url(#filter0_d_1979_550)">
<mask id="path-1-inside-1_1979_550" fill="white">
<path d="M5 6C5 2.68629 7.68629 0 11 0H29C32.3137 0 35 2.68629 35 6V24C35 27.3137 32.3137 30 29 30H11C7.68629 30 5 27.3137 5 24V6Z"/>
</mask>
<path d="M5 6C5 2.68629 7.68629 0 11 0H29C32.3137 0 35 2.68629 35 6V24C35 27.3137 32.3137 30 29 30H11C7.68629 30 5 27.3137 5 24V6Z" fill="white"/>
<path d="M3 6C3 1.58172 6.58172 -2 11 -2H30C34.4183 -2 38 1.58172 38 6H32C32 3.79086 30.6569 2 29 2H11C8.79086 2 7 3.79086 7 6H3ZM38 24C38 28.9706 33.9706 33 29 33H11C6.58172 33 3 29.4183 3 25L7 24C7 25.6569 8.79086 27 11 27H29C30.6569 27 32 25.6569 32 24H38ZM11 33C6.58172 33 3 29.4183 3 25V6C3 1.58172 6.58172 -2 11 -2V2C8.79086 2 7 3.79086 7 6V24C7 25.6569 8.79086 27 11 27V33ZM30 -2C34.4183 -2 38 1.58172 38 6V24C38 28.9706 33.9706 33 29 33V27C30.6569 27 32 25.6569 32 24V6C32 3.79086 30.6569 2 29 2L30 -2Z" fill="#FFC72C" mask="url(#path-1-inside-1_1979_550)"/>
<path d="M27.2493 9.50033C26.9993 9.58366 26.7493 9.66699 26.4993 9.75033C26.8327 9.41699 27.0827 9.00033 27.166 8.50033C27.166 8.41699 27.166 8.25033 27.0827 8.25033C26.9993 8.25033 26.8327 8.25033 26.7493 8.25033C26.166 8.58366 25.5827 8.83366 24.9993 8.91699C24.3327 8.33366 23.4993 7.91699 22.5827 7.91699C20.7493 7.91699 19.166 9.41699 19.166 11.3337C19.166 11.5003 19.166 11.667 19.166 11.7503C16.8327 11.5837 14.666 10.417 13.166 8.58366C13.0827 8.50033 12.9993 8.50033 12.916 8.50033C12.8327 8.50033 12.7493 8.58366 12.7493 8.66699C12.416 9.16699 12.2493 9.75033 12.2493 10.417C12.2493 11.2503 12.5827 12.0003 13.0827 12.5837C12.916 12.5003 12.7493 12.5003 12.666 12.417C12.666 12.417 12.5827 12.417 12.4993 12.417C12.416 12.5003 12.3327 12.5837 12.3327 12.667C12.3327 12.667 12.3327 12.667 12.3327 12.7503C12.3327 14.0003 12.9993 15.0837 13.9993 15.667C13.916 15.667 13.8327 15.667 13.7493 15.667C13.666 15.667 13.5827 15.667 13.4993 15.7503C13.416 15.8337 13.416 15.917 13.416 16.0003C13.7493 17.167 14.7493 18.0003 15.916 18.2503C14.916 18.8337 13.8327 19.167 12.666 19.167C12.416 19.167 12.166 19.167 11.916 19.0837C11.8327 19.0837 11.666 19.167 11.666 19.2503C11.666 19.3337 11.666 19.5003 11.7493 19.5837C13.2493 20.5003 14.916 21.0003 16.666 21.0003C20.166 21.0003 22.3327 19.3337 23.4993 18.0003C24.9993 16.3337 25.8327 14.0003 25.8327 11.8337C25.8327 11.7503 25.8327 11.667 25.8327 11.5837C26.416 11.167 26.916 10.5837 27.3327 10.0003C27.416 9.91699 27.416 9.75033 27.3327 9.66699C27.416 9.50033 27.3327 9.50033 27.2493 9.50033Z" fill="#DA291C"/>
</g>
<defs>
<filter id="filter0_d_1979_550" x="-4" y="0" width="43" height="38" filterUnits="userSpaceOnUse" color-interpolation-filters="sRGB">
<feFlood flood-opacity="0" result="BackgroundImageFix"/>
<feColorMatrix in="SourceAlpha" type="matrix" values="0 0 0 0 0 0 0 0 0 0 0 0 0 0 0 0 0 0 127 0" result="hardAlpha"/>
<feOffset dy="4"/>
<feGaussianBlur stdDeviation="2"/>
<feComposite in2="hardAlpha" operator="out"/>
<feColorMatrix type="matrix" values="0 0 0 0 0 0 0 0 0 0 0 0 0 0 0 0 0 0 0.25 0"/>
<feBlend mode="normal" in2="BackgroundImageFix" result="effect1_dropShadow_1979_550"/>
<feBlend mode="normal" in="SourceGraphic" in2="effect1_dropShadow_1979_550" result="shape"/>
</filter>
</defs>
</svg>
